<svg data-name="Layer 1" xmlns="http://www.w3.org/2000/svg" viewBox="0 0 150.16 35.62" class="h-8 w-auto sm:h-8"><defs><linearGradient id="ep-logo_svg__a" x1="17.81" x2="17.81" y2="35.62" gradientUnits="userSpaceOnUse"><stop offset="0" stop-color="#25528c"></stop><stop offset="1" stop-color="#31965e"></stop></linearGradient><linearGradient id="ep-logo_svg__b" x1="41.98" y1="19.01" x2="150.16" y2="19.01" gradientUnits="userSpaceOnUse"><stop offset="0" stop-color="#31965e"></stop><stop offset="1" stop-color="#25528c"></stop></linearGradient></defs><path d="M35.62 17.81A17.81 17.81 0 1117.81 0a17.82 17.82 0 0117.81 17.81zM17.81 3.2a14.65 14.65 0 1014.64 14.65A14.65 14.65 0 0017.81 3.2zm7.45 6.2a2.67 2.67 0 012.41 3.23l-2.59 6.79H11.41l-1.3 3.5A2.35 2.35 0 018 19.83l3.92-10.49zm-11.32 3.28l-1.35 3.51H23l1-2.44a.94.94 0 00-.73-1.07zm-3.75 10.4a2.51 2.51 0 002 3.26H23a2.46 2.46 0 00-2-3.22z" fill="url(#ep-logo_svg__a)"></path><path d="M58.33 9l-.68 3h-8.42s-1-.07-1.22 1.28l-.48 2.17h9.15l-.56 2.87H47l-.66 3s-.08.65.71.72 8.56 0 8.56 0L55 25H43.68A1.62 1.62 0 0142 23.33l2.49-11.86a2.79 2.79 0 013-2.43zm1.73 14.58a1.87 1.87 0 002.07 1.53 2.83 2.83 0 002.7-1.25l7-10.94h-3.66s-4.55 7.61-5 8.25-.59 0-.59 0L61.18 13h-3.34zm14.16-3.55s-.31 1.42.21 1.93 1.13.55 2.84.55h4.8L81.54 25h-7.27s-3.52 0-3.68-3.12c0 0 0-4.44 2-7.44 1.27-2.12 6.79-1.63 6.79-1.63s4.48 0 4.48 3.57-2.09 3.7-2.09 3.7zm.53-2.26h4.32c1.14 0 1.16-.93 1.16-.93s.44-1.71-2.43-1.71a2.81 2.81 0 00-3 2.49zM83.54 25h3.29l1.32-6.35s.46-3.49 3.69-3.24h1.44L95.74 25l-2.83 4h3.53l10.67-16h-3.61l-5.65 8.79-2-8.79h-5.34s-4.84-.21-5.62 5.68zm39.8-12.38c0 3.63-.86 6.19-3.29 6.88-1.56.47-9 .3-9 .3l-1.28 5.2h-3.93l2.87-13.57a2.68 2.68 0 012.69-2.38h8.28s3.66-.05 3.66 3.56zm-4.34-.17c-.44-.55-1.32-.36-4.07-.36h-1.51s-.91-.11-1.21 1.41-.61 3.34-.61 3.34h5.3a2.17 2.17 0 002.1-1.46s.82-1.98 0-2.93zM138.88 25l-2.64 3.83h3.4L150.16 13h-3.53L141 21.65 139.16 13h-3.37zm-3.6-8.29l-1.39 6.62a2.75 2.75 0 01-2.76 1.67s-5.41 0-6.77-.12c-1.83-.43-2.2-1.57-2-3.92a3.47 3.47 0 013.41-3.47h6.07c.66-2.22-1.26-2.15-1.26-2.15h-6.1L125 13s4.42-.16 7.64 0c3.41.13 2.64 3.72 2.64 3.72zm-4.05 3.12h-4c-1 0-1.39.64-1.52 1.82s.87 1.08.87 1.08h2.91c1.14 0 1.27-.77 1.27-.77z" fill="url(#ep-logo_svg__b)"></path></svg>